<svg width="22" height="28" viewBox="0 0 22 28" fill="none" xmlns="http://www.w3.org/2000/svg">
<path d="M20.2209 1.0997C19.5724 0.422961 18.6419 0 17.6549 0H4.34578C3.33067 0 2.42835 0.422961 1.77981 1.0715C1.13127 1.72004 0.708313 2.65055 0.708313 3.63746V24.3625C0.708313 25.3776 1.13127 26.28 1.77981 26.9285C2.42835 27.577 3.35887 28 4.34578 28H17.6549C18.67 28 19.5724 27.577 20.2209 26.9285C20.8694 26.28 21.2924 25.3494 21.2924 24.3625V3.66566C21.2924 2.65055 20.8694 1.74824 20.2209 1.0997ZM19.8825 24.3625C19.8825 24.9829 19.6288 25.5186 19.234 25.9416C18.8392 26.3364 18.2753 26.5901 17.6549 26.5901H4.34578C3.72543 26.5901 3.18968 26.3364 2.76672 25.9416C2.37196 25.5468 2.11818 24.9829 2.11818 24.3625V3.66566C2.11818 3.04532 2.37196 2.50957 2.76672 2.08661C3.16149 1.69184 3.72543 1.43807 4.34578 1.43807H17.6549C18.2753 1.43807 18.811 1.69184 19.234 2.08661C19.6288 2.48137 19.8825 3.04532 19.8825 3.66566V24.3625Z" fill="white"/>
<path d="M11 19.4585C11.4049 19.4585 11.7332 19.1302 11.7332 18.7253C11.7332 18.3204 11.4049 17.9922 11 17.9922C10.5951 17.9922 10.2669 18.3204 10.2669 18.7253C10.2669 19.1302 10.5951 19.4585 11 19.4585Z" fill="white"/>
<path d="M11.0011 12.0396C9.16824 12.0396 7.4764 12.8009 6.26391 13.9852C5.05143 15.1977 4.3183 16.8613 4.3183 18.7223C4.3183 20.5552 5.07963 22.247 6.26391 23.4595C7.4764 24.672 9.14005 25.4051 11.0011 25.4051C12.8339 25.4051 14.5257 24.6438 15.7382 23.4595C16.9507 22.247 17.6838 20.5833 17.6838 18.7223C17.6838 16.8895 16.9225 15.1977 15.7382 13.9852C14.5257 12.8009 12.8339 12.0396 11.0011 12.0396ZM14.7231 22.4444C13.7644 23.4031 12.4673 23.9952 11.0011 23.9952C9.53481 23.9952 8.23773 23.4031 7.27902 22.4444C6.32031 21.4857 5.72817 20.1886 5.72817 18.7223C5.72817 17.2561 6.32031 15.959 7.27902 15.0003C8.23773 14.0416 9.53481 13.4494 11.0011 13.4494C12.4391 13.4494 13.7644 14.0416 14.7231 15.0003C15.6818 15.959 16.274 17.2561 16.274 18.7223C16.2458 20.1604 15.6818 21.4857 14.7231 22.4444Z" fill="white"/>
<path d="M11.0002 14.8906C9.92869 14.8906 8.96998 15.3136 8.29324 16.0185C7.5883 16.7235 7.16534 17.6822 7.16534 18.7255C7.16534 19.797 7.5883 20.7557 8.29324 21.4324C8.99817 22.1374 9.95689 22.5603 11.0002 22.5603C12.0717 22.5603 13.0304 22.1374 13.7071 21.4324C14.4121 20.7275 14.835 19.7688 14.835 18.7255C14.835 17.654 14.4121 16.6953 13.7071 16.0185C13.0304 15.3136 12.0717 14.8906 11.0002 14.8906ZM12.7202 20.4455C12.2691 20.8967 11.6769 21.1504 11.0002 21.1504C10.3235 21.1504 9.73131 20.8685 9.28015 20.4455C8.82899 19.9944 8.57521 19.4022 8.57521 18.7255C8.57521 18.0487 8.85719 17.4566 9.28015 17.0054C9.73131 16.5543 10.3235 16.3005 11.0002 16.3005C11.6769 16.3005 12.2691 16.5825 12.7202 17.0054C13.1714 17.4566 13.4252 18.0487 13.4252 18.7255C13.4252 19.4022 13.1432 19.9944 12.7202 20.4455Z" fill="white"/>
<path d="M10.9996 11.2218C12.1839 11.2218 13.2554 10.7424 14.0449 9.9529C14.8345 9.16337 15.3138 8.09187 15.3138 6.90758C15.3138 5.72329 14.8345 4.65179 14.0449 3.86227C13.2554 3.07274 12.1839 2.59338 10.9996 2.59338C9.81534 2.59338 8.74383 3.07274 7.95431 3.86227C7.16478 4.65179 6.68542 5.72329 6.68542 6.90758C6.68542 8.09187 7.16478 9.16337 7.95431 9.9529C8.74383 10.7424 9.81534 11.2218 10.9996 11.2218ZM8.96941 4.87737C9.47697 4.36982 10.2101 4.03145 10.9996 4.03145C11.7892 4.03145 12.5223 4.34162 13.0298 4.87737C13.5374 5.38492 13.8758 6.11806 13.8758 6.90758C13.8758 7.69711 13.5656 8.43024 13.0298 8.9378C12.5223 9.44535 11.7892 9.78372 10.9996 9.78372C10.2101 9.78372 9.47697 9.47355 8.96941 8.9378C8.46186 8.43024 8.12349 7.69711 8.12349 6.90758C8.12349 6.11806 8.43366 5.41312 8.96941 4.87737Z" fill="white"/>
<path d="M11 8.57169C11.4512 8.57169 11.8459 8.3743 12.1561 8.09233C12.4663 7.78216 12.6355 7.38739 12.6355 6.93623C12.6355 6.48507 12.4381 6.09031 12.1561 5.78014C11.8459 5.46997 11.4512 5.30078 11 5.30078C10.5489 5.30078 10.1541 5.49816 9.84392 5.78014C9.53375 6.09031 9.36456 6.48507 9.36456 6.93623C9.36456 7.38739 9.53375 7.78216 9.84392 8.09233C10.1541 8.4025 10.5489 8.57169 11 8.57169ZM10.6616 6.59786C10.7462 6.51327 10.859 6.45688 11 6.45688C11.1128 6.45688 11.2538 6.51327 11.3102 6.59786C11.3948 6.68246 11.4512 6.79525 11.4512 6.90804C11.4512 7.04902 11.3948 7.16181 11.3102 7.21821C11.2256 7.3028 11.1128 7.3592 11 7.3592C10.859 7.3592 10.7462 7.3028 10.6898 7.21821C10.6052 7.13362 10.5489 7.02083 10.5489 6.90804C10.5489 6.79525 10.6052 6.68246 10.6616 6.59786Z" fill="white"/>
</svg>
